<svg width="31" height="16" viewBox="0 0 31 16" fill="none" xmlns="http://www.w3.org/2000/svg">
<path d="M9.29876 6.45231L9.40996 6.8H9.775H13.9691L10.5549 9.29638L10.264 9.50908L10.3738 9.85231L11.6764 13.9254L8.29756 11.4232L8 11.2028L7.70244 11.4232L4.31766 13.9297L5.60166 9.87598L5.70946 9.53564L5.42256 9.32318L2.01534 6.8H6.225H6.59004L6.70124 6.45231L8 2.39139L9.29876 6.45231Z" stroke="#FF352B"/>
<path d="M31 6.3H25.275L23.5 0.75L21.725 6.3H16L20.625 9.725L18.875 15.25L23.5 11.825L28.125 15.25L26.35 9.7L31 6.3Z" fill="#FF352B"/>
</svg>
