<svg width="12" height="12" viewBox="0 0 12 12" fill="none" xmlns="http://www.w3.org/2000/svg">
<path fill-rule="evenodd" clip-rule="evenodd" d="M6.13469 0.718018C3.20702 0.718018 0.825195 3.18454 0.825195 6.21633C0.825195 9.24811 3.20702 11.7146 6.13469 11.7146C9.06236 11.7146 11.4442 9.24811 11.4442 6.21633C11.4442 3.18454 9.06236 0.718018 6.13469 0.718018ZM9.64519 3.25354C10.2768 4.0527 10.6593 5.07058 10.6693 6.17906C10.5198 6.14632 9.0204 5.83138 7.51139 6.0279C7.38824 5.71661 7.27201 5.44276 7.11281 5.1053C8.78961 4.39635 9.54957 3.38747 9.64519 3.25354ZM6.76428 4.40699C8.37691 3.78104 9.05959 2.83083 9.14116 2.71051C8.02584 1.68581 6.51028 1.29864 5.0721 1.65765C5.19745 1.83147 6.02113 2.99303 6.76428 4.40699ZM4.20655 1.9732C4.32612 2.143 5.13653 3.30601 5.88797 4.6893C3.76659 5.27267 1.89814 5.26427 1.69531 5.2615C1.98939 3.80416 2.93778 2.59293 4.20655 1.9732ZM1.60191 6.07991C1.60051 6.12759 1.59959 6.17539 1.59959 6.22342C1.59959 7.42965 2.04114 8.53098 2.76548 9.36357C3.50061 8.06041 4.99058 6.68689 6.63051 6.20856C6.51668 5.94176 6.39265 5.67467 6.26283 5.41155C3.99803 6.11345 1.80033 6.08412 1.60191 6.07991ZM3.35089 9.92858C3.82461 8.92574 5.11026 7.63122 6.93863 6.9853C7.57534 8.69871 7.83865 10.1347 7.90609 10.5467C6.44786 11.19 4.69438 11.0135 3.35089 9.92858ZM7.78764 6.76827C8.38081 8.45625 8.6222 9.83107 8.66868 10.1168C9.68608 9.40433 10.4104 8.27578 10.6125 6.96902C10.4574 6.91832 9.20879 6.53268 7.78764 6.76827Z" fill="white"/>
</svg>
