<svg width="12" height="10" viewBox="0 0 12 10" fill="none" xmlns="http://www.w3.org/2000/svg">
<path d="M10.0081 2.4717C10.0151 2.57253 10.0151 2.67339 10.0151 2.77422C10.0151 5.84973 7.75462 9.39343 3.62316 9.39343C2.35034 9.39343 1.16795 9.01168 0.17334 8.34906C0.354184 8.37066 0.528049 8.37786 0.715851 8.37786C1.76608 8.37786 2.73288 8.01054 3.50492 7.38391C2.51727 7.3623 1.68959 6.69245 1.40442 5.77051C1.54353 5.79211 1.68263 5.80652 1.8287 5.80652C2.0304 5.80652 2.23212 5.77769 2.4199 5.7273C1.39052 5.5112 0.61846 4.57487 0.61846 3.44406V3.41526C0.917526 3.58813 1.26532 3.69616 1.63392 3.71055C1.02881 3.29279 0.632376 2.57974 0.632376 1.77304C0.632376 1.34089 0.74364 0.944745 0.9384 0.599016C2.0443 2.01073 3.70662 2.93265 5.57062 3.0335C5.53585 2.86064 5.51497 2.68059 5.51497 2.50052C5.51497 1.21844 6.51654 0.174072 7.76153 0.174072C8.40837 0.174072 8.99261 0.454974 9.40298 0.90874C9.9107 0.807908 10.3976 0.613427 10.8288 0.346937C10.6619 0.887146 10.3072 1.34091 9.84117 1.629C10.2933 1.5786 10.7314 1.44893 11.1348 1.26888C10.8289 1.72983 10.4463 2.14036 10.0081 2.4717Z" fill="white"/>
</svg>
