<svg width="11" height="9" viewBox="0 0 11 9" fill="none" xmlns="http://www.w3.org/2000/svg">
<path fill-rule="evenodd" clip-rule="evenodd" d="M9.40656 1.18182C9.85372 1.30795 10.2059 1.6796 10.3254 2.15151C10.5426 3.00685 10.5426 4.79146 10.5426 4.79146C10.5426 4.79146 10.5426 6.57607 10.3254 7.43141C10.2059 7.90332 9.85372 8.25949 9.40656 8.38561C8.59603 8.6148 5.34601 8.6148 5.34601 8.6148C5.34601 8.6148 2.09598 8.6148 1.28546 8.38561C0.838298 8.25949 0.48612 7.90332 0.36659 7.43141C0.149414 6.57607 0.149414 4.79146 0.149414 4.79146C0.149414 4.79146 0.149414 3.00685 0.36659 2.15151C0.48612 1.6796 0.838298 1.30797 1.28546 1.18182C2.09598 0.952637 5.34601 0.952637 5.34601 0.952637C5.34601 0.952637 8.59605 0.952637 9.40656 1.18182ZM4.28278 3.17105V6.41163L6.99917 4.79138L4.28278 3.17105Z" fill="white"/>
</svg>
