<svg width="21" height="18" viewBox="0 0 21 18" fill="none" xmlns="http://www.w3.org/2000/svg">
<path d="M2.09709 7.74986H16.9335L12.3925 2.29986C12.1802 2.04459 12.078 1.71548 12.1085 1.38495C12.139 1.05442 12.2997 0.74953 12.5551 0.537356C12.8106 0.325183 13.1399 0.223106 13.4707 0.25358C13.8015 0.284055 14.1066 0.444586 14.319 0.699856L20.5738 8.19986C20.6159 8.25951 20.6535 8.32218 20.6864 8.38736C20.6864 8.44986 20.6864 8.48736 20.7739 8.54986C20.8306 8.69318 20.8603 8.84575 20.8615 8.99986C20.8603 9.15397 20.8306 9.30653 20.7739 9.44986C20.7739 9.51236 20.7739 9.54986 20.6864 9.61236C20.6535 9.67753 20.6159 9.7402 20.5738 9.79986L14.319 17.2999C14.2014 17.441 14.0541 17.5544 13.8876 17.6322C13.7211 17.71 13.5395 17.7502 13.3557 17.7499C13.0635 17.7504 12.7802 17.6487 12.5551 17.4624C12.4285 17.3574 12.3237 17.2285 12.247 17.0831C12.1702 16.9377 12.123 16.7785 12.1079 16.6148C12.0928 16.4511 12.1101 16.286 12.159 16.129C12.2078 15.972 12.2872 15.8262 12.3925 15.6999L16.9335 10.2499H2.09709C1.76531 10.2499 1.44712 10.1182 1.21252 9.88374C0.977922 9.64932 0.846127 9.33138 0.846127 8.99986C0.846127 8.66834 0.977922 8.35039 1.21252 8.11597C1.44712 7.88155 1.76531 7.74986 2.09709 7.74986Z" fill="white"/>
</svg>
