<svg width="21" height="18" viewBox="0 0 21 18" fill="none" xmlns="http://www.w3.org/2000/svg">
<path d="M19.549 7.74986H4.71263L9.25362 2.29986C9.46595 2.04459 9.56811 1.71548 9.53761 1.38495C9.50711 1.05442 9.34646 0.74953 9.09099 0.537356C8.83552 0.325183 8.50617 0.223106 8.17538 0.25358C7.8446 0.284055 7.53947 0.444586 7.32714 0.699856L1.07233 8.19986C1.03025 8.25951 0.992616 8.32218 0.959741 8.38736C0.959741 8.44986 0.959742 8.48736 0.872174 8.54986C0.815473 8.69318 0.785784 8.84575 0.784607 8.99986C0.785784 9.15397 0.815473 9.30653 0.872174 9.44986C0.872174 9.51236 0.872174 9.54986 0.959741 9.61236C0.992616 9.67753 1.03025 9.7402 1.07233 9.79986L7.32714 17.2999C7.44475 17.441 7.59204 17.5544 7.75853 17.6322C7.92501 17.71 8.1066 17.7502 8.29038 17.7499C8.58267 17.7504 8.86593 17.6487 9.09099 17.4624C9.21766 17.3574 9.32237 17.2285 9.39912 17.0831C9.47587 16.9377 9.52315 16.7785 9.53826 16.6148C9.55336 16.4511 9.536 16.286 9.48715 16.129C9.43831 15.972 9.35895 15.8262 9.25362 15.6999L4.71263 10.2499H19.549C19.8808 10.2499 20.199 10.1182 20.4336 9.88374C20.6682 9.64932 20.8 9.33138 20.8 8.99986C20.8 8.66834 20.6682 8.35039 20.4336 8.11597C20.199 7.88155 19.8808 7.74986 19.549 7.74986Z" fill="#F53838"/>
</svg>
