<svg width="14" height="14" viewBox="0 0 14 14" fill="none" xmlns="http://www.w3.org/2000/svg">
<path d="M13.4723 5.16509L9.50205 4.58853L7.72725 0.993219C7.67877 0.894781 7.59902 0.815094 7.50051 0.766656C7.25345 0.644781 6.95322 0.746344 6.82968 0.993219L5.05488 4.58853L1.08464 5.16509C0.975183 5.18072 0.875106 5.23228 0.798484 5.31041C0.705853 5.40554 0.654809 5.53353 0.656569 5.66625C0.658328 5.79897 0.712746 5.92557 0.807867 6.01822L3.68039 8.81666L3.00174 12.7682C2.98583 12.8601 2.99601 12.9547 3.03113 13.0411C3.06625 13.1276 3.1249 13.2024 3.20044 13.2572C3.27598 13.3121 3.36537 13.3446 3.4585 13.3513C3.55162 13.3579 3.64474 13.3383 3.7273 13.2948L7.27847 11.4292L10.8296 13.2948C10.9266 13.3463 11.0392 13.3635 11.1471 13.3448C11.4191 13.2979 11.6021 13.0401 11.5552 12.7682L10.8765 8.81666L13.7491 6.01822C13.8272 5.94166 13.8789 5.84166 13.8945 5.73228C13.9367 5.45884 13.7459 5.20572 13.4723 5.16509Z" fill="#FEA250"/>
</svg>
